<?xml version="1.0" encoding="UTF-8" standalone="no"?>
<!DOCTYPE svg PUBLIC "-//W3C//DTD SVG 1.1//EN" "http://www.w3.org/Graphics/SVG/1.1/DTD/svg11.dtd">
<svg width="100%" height="100%" viewBox="0 0 460 460" version="1.1" xmlns="http://www.w3.org/2000/svg" xmlns:xlink="http://www.w3.org/1999/xlink" xml:space="preserve" xmlns:serif="http://www.serif.com/" style="fill-rule:evenodd;clip-rule:evenodd;stroke-linejoin:round;stroke-miterlimit:2;">
    <g transform="matrix(0.131074,0,0,-0.131074,35.4187,454.791)">
        <g>
            <path d="M422,3037L149,2763L153,2204C158,1610 159,1590 211,1400C232,1324 295,1162 309,1147C317,1139 550,1287 550,1301C550,1305 541,1333 529,1362C517,1391 499,1447 488,1485C444,1639 440,1702 440,2190L440,2655L805,3020L2165,3020L2289,2896C2376,2809 2410,2768 2404,2759C2400,2751 2373,2716 2345,2680C2113,2386 2000,2239 2012,2246C2039,2262 2805,2762 2810,2766C2812,2769 2693,2892 2545,3040L2275,3310L695,3310L422,3037Z" style="fill:rgb(24,41,84);fill-rule:nonzero;stroke:rgb(24,41,84);stroke-width:7.63px;"/>
            <path d="M2674,2008L2533,1916L2527,1781C2519,1588 2481,1436 2399,1265C2319,1097 2173,916 2030,808C1965,758 1525,475 1496,464C1474,456 1077,709 1088,724C1093,730 1183,846 1288,982L1478,1228L1322,1126C1235,1070 1049,948 907,856L649,687L672,663C720,611 885,497 1177,311C1343,206 1481,120 1484,120C1492,120 2100,508 2170,558C2252,616 2406,764 2477,853C2588,992 2684,1170 2741,1342C2794,1504 2812,1626 2817,1855C2820,1971 2821,2073 2819,2082C2816,2096 2787,2081 2674,2008Z" style="fill:rgb(0,78,113);fill-rule:nonzero;"/>
        </g>
    </g>
</svg>
