<?xml version="1.0" encoding="UTF-8" standalone="no"?>
<!DOCTYPE svg PUBLIC "-//W3C//DTD SVG 1.1//EN" "http://www.w3.org/Graphics/SVG/1.1/DTD/svg11.dtd">
<svg width="100%" height="100%" viewBox="0 0 2000 440" version="1.1" xmlns="http://www.w3.org/2000/svg" xmlns:xlink="http://www.w3.org/1999/xlink" xml:space="preserve" xmlns:serif="http://www.serif.com/" style="fill-rule:evenodd;clip-rule:evenodd;stroke-linejoin:round;stroke-miterlimit:2;">
    <g transform="matrix(1.04999,0,0,1.04999,-20.7964,-21.9845)">
        <g transform="matrix(1.82156,0,0,1.82156,-195.509,37.0182)">
            <g transform="matrix(136.153,0,0,136.153,337.907,127.18)">
                <path d="M0.541,-0.535L0.229,-0.535L0.229,-0.385L0.476,-0.385L0.476,-0.261L0.229,-0.261L0.229,-0L0.067,-0L0.067,-0.667L0.541,-0.667L0.541,-0.535Z" style="fill:rgb(24,41,84);fill-rule:nonzero;"/>
            </g>
            <g transform="matrix(136.153,0,0,136.153,412.167,127.18)">
                <path d="M0.317,0.01C0.227,0.01 0.158,-0.023 0.109,-0.091C0.06,-0.158 0.035,-0.24 0.035,-0.335C0.035,-0.433 0.06,-0.514 0.11,-0.579C0.16,-0.644 0.23,-0.677 0.323,-0.677C0.416,-0.677 0.486,-0.642 0.533,-0.573C0.58,-0.503 0.604,-0.424 0.604,-0.334C0.604,-0.237 0.58,-0.156 0.531,-0.089C0.482,-0.023 0.411,0.01 0.317,0.01ZM0.322,-0.549C0.24,-0.549 0.199,-0.477 0.199,-0.333C0.199,-0.189 0.24,-0.117 0.322,-0.117C0.401,-0.117 0.44,-0.189 0.44,-0.333C0.44,-0.477 0.401,-0.549 0.322,-0.549Z" style="fill:rgb(24,41,84);fill-rule:nonzero;"/>
            </g>
            <g transform="matrix(136.153,0,0,136.153,499.19,127.18)">
                <path d="M0.224,-0.264L0.224,-0L0.067,-0L0.067,-0.667L0.36,-0.667C0.414,-0.667 0.457,-0.66 0.49,-0.648C0.523,-0.635 0.55,-0.612 0.571,-0.579C0.593,-0.545 0.604,-0.508 0.604,-0.467C0.604,-0.387 0.565,-0.329 0.488,-0.295L0.611,-0L0.438,-0L0.336,-0.264L0.224,-0.264ZM0.224,-0.548L0.224,-0.378L0.32,-0.378C0.351,-0.378 0.374,-0.38 0.388,-0.385C0.402,-0.389 0.415,-0.399 0.426,-0.414C0.437,-0.429 0.442,-0.446 0.442,-0.466C0.442,-0.484 0.437,-0.501 0.426,-0.516C0.415,-0.53 0.403,-0.539 0.39,-0.543C0.377,-0.546 0.352,-0.548 0.316,-0.548L0.224,-0.548Z" style="fill:rgb(24,41,84);fill-rule:nonzero;"/>
            </g>
            <g transform="matrix(136.153,0,0,136.153,588.673,127.18)">
                <path d="M0.489,-0.667L0.489,-0.535L0.324,-0.535L0.324,-0L0.166,-0L0.166,-0.535L0,-0.535L0,-0.667L0.489,-0.667Z" style="fill:rgb(24,41,84);fill-rule:nonzero;"/>
            </g>
            <g transform="matrix(136.153,0,0,136.153,655.287,127.18)">
                <rect x="0.067" y="-0.667" width="0.156" height="0.667" style="fill:rgb(24,41,84);fill-rule:nonzero;"/>
            </g>
            <g transform="matrix(136.153,0,0,136.153,694.71,127.18)">
                <path d="M0.541,-0.535L0.229,-0.535L0.229,-0.385L0.476,-0.385L0.476,-0.261L0.229,-0.261L0.229,-0L0.067,-0L0.067,-0.667L0.541,-0.667L0.541,-0.535Z" style="fill:rgb(24,41,84);fill-rule:nonzero;"/>
            </g>
            <g transform="matrix(136.153,0,0,136.153,770.166,127.18)">
                <path d="M0.548,-0.667L0.338,-0.281L0.338,-0L0.183,-0L0.183,-0.281L-0.027,-0.667L0.154,-0.667L0.281,-0.414L0.408,-0.667L0.548,-0.667Z" style="fill:rgb(24,41,84);fill-rule:nonzero;"/>
            </g>
            <g transform="matrix(136.153,0,0,136.153,841.168,127.18)">
                <path d="M0.362,-0L0.198,-0.543L0.198,-0L0.067,-0L0.067,-0.667L0.31,-0.667L0.427,-0.268L0.55,-0.667L0.794,-0.667L0.794,-0L0.637,-0L0.637,-0.543L0.469,-0L0.362,-0Z" style="fill:rgb(0,79,113);fill-rule:nonzero;"/>
            </g>
            <g transform="matrix(136.153,0,0,136.153,958.241,127.18)">
                <path d="M0.394,-0.667L0.603,-0L0.435,-0L0.394,-0.137L0.179,-0.137L0.137,-0L0,-0L0.214,-0.667L0.394,-0.667ZM0.216,-0.26L0.357,-0.26L0.287,-0.494L0.216,-0.26Z" style="fill:rgb(0,79,113);fill-rule:nonzero;"/>
            </g>
            <g transform="matrix(136.153,0,0,136.153,1041.01,127.18)">
                <rect x="0.067" y="-0.667" width="0.156" height="0.667" style="fill:rgb(0,79,113);fill-rule:nonzero;"/>
            </g>
            <g transform="matrix(136.153,0,0,136.153,1080.43,127.18)">
                <path d="M0.225,-0.132L0.49,-0.132L0.49,-0L0.067,-0L0.067,-0.667L0.225,-0.667L0.225,-0.132Z" style="fill:rgb(0,79,113);fill-rule:nonzero;"/>
            </g>
        </g>
        <g transform="matrix(0.970114,0,0,0.970114,23.6268,-17.3811)">
            <g transform="matrix(72,0,0,72,422.502,394.975)">
                <path d="M0.867,-0.667L0.699,-0L0.546,-0L0.436,-0.441L0.331,-0L0.178,-0L0.007,-0.667L0.166,-0.667L0.258,-0.26C0.258,-0.258 0.26,-0.251 0.263,-0.238C0.265,-0.234 0.267,-0.227 0.269,-0.218L0.378,-0.667L0.522,-0.667L0.634,-0.218C0.636,-0.226 0.64,-0.24 0.644,-0.26L0.738,-0.667L0.867,-0.667Z" style="fill:rgb(24,41,84);fill-rule:nonzero;"/>
            </g>
            <g transform="matrix(72,0,0,72,522.081,394.975)">
                <path d="M0.582,-0.667L0.582,-0L0.428,-0L0.428,-0.275L0.22,-0.275L0.22,-0L0.067,-0L0.067,-0.667L0.22,-0.667L0.22,-0.407L0.428,-0.407L0.428,-0.667L0.582,-0.667Z" style="fill:rgb(24,41,84);fill-rule:nonzero;"/>
            </g>
            <g transform="matrix(72,0,0,72,605.489,394.975)">
                <path d="M0.543,-0.54L0.226,-0.54L0.226,-0.403L0.475,-0.403L0.475,-0.277L0.226,-0.277L0.226,-0.132L0.543,-0.132L0.543,-0L0.067,-0L0.067,-0.667L0.543,-0.667L0.543,-0.54Z" style="fill:rgb(24,41,84);fill-rule:nonzero;"/>
            </g>
            <g transform="matrix(72,0,0,72,683.236,394.975)">
                <path d="M0.58,-0.667L0.58,-0L0.446,-0L0.186,-0.45C0.186,-0.439 0.186,-0.431 0.187,-0.428C0.188,-0.416 0.188,-0.407 0.188,-0.399L0.188,-0L0.067,-0L0.067,-0.667L0.235,-0.667L0.462,-0.273C0.46,-0.293 0.459,-0.308 0.459,-0.318L0.459,-0.667L0.58,-0.667Z" style="fill:rgb(24,41,84);fill-rule:nonzero;"/>
            </g>
            <g transform="matrix(72,0,0,72,821.223,394.975)">
                <path d="M0.226,-0.248L0.226,-0L0.067,-0L0.067,-0.667L0.33,-0.667C0.388,-0.667 0.433,-0.66 0.464,-0.648C0.495,-0.635 0.523,-0.613 0.547,-0.581C0.572,-0.548 0.584,-0.509 0.584,-0.462C0.584,-0.429 0.577,-0.397 0.564,-0.366C0.551,-0.334 0.533,-0.31 0.509,-0.292C0.486,-0.274 0.462,-0.262 0.44,-0.256C0.418,-0.25 0.383,-0.248 0.335,-0.248L0.226,-0.248ZM0.22,-0.369L0.322,-0.369C0.361,-0.369 0.388,-0.378 0.403,-0.396C0.419,-0.413 0.427,-0.434 0.427,-0.457C0.427,-0.484 0.418,-0.506 0.401,-0.521C0.383,-0.537 0.357,-0.545 0.321,-0.545L0.22,-0.545L0.22,-0.369Z" style="fill:rgb(24,41,84);fill-rule:nonzero;"/>
            </g>
            <g transform="matrix(72,0,0,72,901.396,394.975)">
                <path d="M0.224,-0.264L0.224,-0L0.067,-0L0.067,-0.667L0.36,-0.667C0.414,-0.667 0.457,-0.66 0.49,-0.648C0.523,-0.635 0.55,-0.612 0.571,-0.579C0.593,-0.545 0.604,-0.508 0.604,-0.467C0.604,-0.387 0.565,-0.329 0.488,-0.295L0.611,-0L0.438,-0L0.336,-0.264L0.224,-0.264ZM0.224,-0.548L0.224,-0.378L0.32,-0.378C0.351,-0.378 0.374,-0.38 0.388,-0.385C0.402,-0.389 0.415,-0.399 0.426,-0.414C0.437,-0.429 0.442,-0.446 0.442,-0.466C0.442,-0.484 0.437,-0.501 0.426,-0.516C0.415,-0.53 0.403,-0.539 0.39,-0.543C0.377,-0.546 0.352,-0.548 0.316,-0.548L0.224,-0.548Z" style="fill:rgb(24,41,84);fill-rule:nonzero;"/>
            </g>
            <g transform="matrix(72,0,0,72,985.436,394.975)">
                <rect x="0.067" y="-0.667" width="0.156" height="0.667" style="fill:rgb(24,41,84);fill-rule:nonzero;"/>
            </g>
            <g transform="matrix(72,0,0,72,1043,394.975)">
                <path d="M0.563,-0.667L0.361,-0L0.193,-0L-0.007,-0.667L0.159,-0.667L0.293,-0.19L0.432,-0.667L0.563,-0.667Z" style="fill:rgb(24,41,84);fill-rule:nonzero;"/>
            </g>
            <g transform="matrix(72,0,0,72,1117.52,394.975)">
                <path d="M0.394,-0.667L0.603,-0L0.435,-0L0.394,-0.137L0.179,-0.137L0.137,-0L0,-0L0.214,-0.667L0.394,-0.667ZM0.216,-0.26L0.357,-0.26L0.287,-0.494L0.216,-0.26Z" style="fill:rgb(24,41,84);fill-rule:nonzero;"/>
            </g>
            <g transform="matrix(72,0,0,72,1196.42,394.975)">
                <path d="M0.604,-0.418L0.441,-0.408C0.439,-0.502 0.402,-0.549 0.331,-0.549C0.249,-0.549 0.208,-0.477 0.208,-0.332C0.208,-0.248 0.22,-0.192 0.242,-0.162C0.264,-0.132 0.295,-0.117 0.335,-0.117C0.399,-0.117 0.439,-0.159 0.453,-0.243L0.604,-0.234C0.595,-0.154 0.565,-0.094 0.515,-0.052C0.466,-0.01 0.405,0.01 0.333,0.01C0.245,0.01 0.173,-0.02 0.118,-0.081C0.063,-0.142 0.035,-0.226 0.035,-0.333C0.035,-0.434 0.062,-0.516 0.115,-0.581C0.169,-0.645 0.242,-0.677 0.334,-0.677C0.494,-0.677 0.584,-0.591 0.604,-0.418Z" style="fill:rgb(24,41,84);fill-rule:nonzero;"/>
            </g>
            <g transform="matrix(72,0,0,72,1278.32,394.975)">
                <path d="M0.548,-0.667L0.338,-0.281L0.338,-0L0.183,-0L0.183,-0.281L-0.027,-0.667L0.154,-0.667L0.281,-0.414L0.408,-0.667L0.548,-0.667Z" style="fill:rgb(24,41,84);fill-rule:nonzero;"/>
            </g>
            <g transform="matrix(72,0,0,72,1407.31,394.975)">
                <path d="M0.362,-0L0.198,-0.543L0.198,-0L0.067,-0L0.067,-0.667L0.31,-0.667L0.427,-0.268L0.55,-0.667L0.794,-0.667L0.794,-0L0.637,-0L0.637,-0.543L0.469,-0L0.362,-0Z" style="fill:rgb(24,41,84);fill-rule:nonzero;"/>
            </g>
            <g transform="matrix(72,0,0,72,1505.94,394.975)">
                <path d="M0.394,-0.667L0.603,-0L0.435,-0L0.394,-0.137L0.179,-0.137L0.137,-0L0,-0L0.214,-0.667L0.394,-0.667ZM0.216,-0.26L0.357,-0.26L0.287,-0.494L0.216,-0.26Z" style="fill:rgb(24,41,84);fill-rule:nonzero;"/>
            </g>
            <g transform="matrix(72,0,0,72,1582.77,394.975)">
                <path d="M0.489,-0.667L0.489,-0.535L0.324,-0.535L0.324,-0L0.166,-0L0.166,-0.535L0,-0.535L0,-0.667L0.489,-0.667Z" style="fill:rgb(24,41,84);fill-rule:nonzero;"/>
            </g>
            <g transform="matrix(72,0,0,72,1654.72,394.975)">
                <path d="M0.489,-0.667L0.489,-0.535L0.324,-0.535L0.324,-0L0.166,-0L0.166,-0.535L0,-0.535L0,-0.667L0.489,-0.667Z" style="fill:rgb(24,41,84);fill-rule:nonzero;"/>
            </g>
            <g transform="matrix(72,0,0,72,1726.66,394.975)">
                <path d="M0.543,-0.54L0.226,-0.54L0.226,-0.403L0.475,-0.403L0.475,-0.277L0.226,-0.277L0.226,-0.132L0.543,-0.132L0.543,-0L0.067,-0L0.067,-0.667L0.543,-0.667L0.543,-0.54Z" style="fill:rgb(24,41,84);fill-rule:nonzero;"/>
            </g>
            <g transform="matrix(72,0,0,72,1804.41,394.975)">
                <path d="M0.224,-0.264L0.224,-0L0.067,-0L0.067,-0.667L0.36,-0.667C0.414,-0.667 0.457,-0.66 0.49,-0.648C0.523,-0.635 0.55,-0.612 0.571,-0.579C0.593,-0.545 0.604,-0.508 0.604,-0.467C0.604,-0.387 0.565,-0.329 0.488,-0.295L0.611,-0L0.438,-0L0.336,-0.264L0.224,-0.264ZM0.224,-0.548L0.224,-0.378L0.32,-0.378C0.351,-0.378 0.374,-0.38 0.388,-0.385C0.402,-0.389 0.415,-0.399 0.426,-0.414C0.437,-0.429 0.442,-0.446 0.442,-0.466C0.442,-0.484 0.437,-0.501 0.426,-0.516C0.415,-0.53 0.403,-0.539 0.39,-0.543C0.377,-0.546 0.352,-0.548 0.316,-0.548L0.224,-0.548Z" style="fill:rgb(24,41,84);fill-rule:nonzero;"/>
            </g>
            <g transform="matrix(72,0,0,72,1888.45,394.975)">
                <path d="M0.527,-0.52L0.395,-0.476C0.377,-0.528 0.339,-0.555 0.281,-0.555C0.219,-0.555 0.188,-0.535 0.188,-0.495C0.188,-0.479 0.194,-0.465 0.206,-0.454C0.217,-0.443 0.243,-0.433 0.284,-0.425C0.352,-0.412 0.402,-0.398 0.433,-0.384C0.465,-0.37 0.491,-0.347 0.513,-0.316C0.535,-0.285 0.545,-0.25 0.545,-0.212C0.545,-0.152 0.522,-0.1 0.476,-0.056C0.43,-0.012 0.361,0.01 0.27,0.01C0.201,0.01 0.143,-0.005 0.095,-0.036C0.047,-0.067 0.016,-0.114 0,-0.175L0.145,-0.208C0.161,-0.145 0.206,-0.114 0.28,-0.114C0.316,-0.114 0.343,-0.121 0.36,-0.135C0.378,-0.149 0.387,-0.165 0.387,-0.185C0.387,-0.204 0.379,-0.219 0.363,-0.23C0.347,-0.241 0.316,-0.251 0.271,-0.26C0.186,-0.278 0.125,-0.302 0.089,-0.332C0.053,-0.363 0.035,-0.407 0.035,-0.466C0.035,-0.525 0.057,-0.575 0.1,-0.616C0.143,-0.656 0.201,-0.677 0.275,-0.677C0.406,-0.677 0.49,-0.625 0.527,-0.52Z" style="fill:rgb(24,41,84);fill-rule:nonzero;"/>
            </g>
        </g>
        <g transform="matrix(0.131074,0,0,-0.131074,0.276243,454.791)">
            <path d="M422,3037L149,2763L153,2204C158,1610 159,1590 211,1400C232,1324 295,1162 309,1147C317,1139 550,1287 550,1301C550,1305 541,1333 529,1362C517,1391 499,1447 488,1485C444,1639 440,1702 440,2190L440,2655L805,3020L2165,3020L2289,2896C2376,2809 2410,2768 2404,2759C2400,2751 2373,2716 2345,2680C2113,2386 2000,2239 2012,2246C2039,2262 2805,2762 2810,2766C2812,2769 2693,2892 2545,3040L2275,3310L695,3310L422,3037Z" style="fill:rgb(24,41,84);fill-rule:nonzero;stroke:rgb(24,41,84);stroke-width:7.27px;"/>
            <path d="M2674,2008L2533,1916L2527,1781C2519,1588 2481,1436 2399,1265C2319,1097 2173,916 2030,808C1965,758 1525,475 1496,464C1474,456 1077,709 1088,724C1093,730 1183,846 1288,982L1478,1228L1322,1126C1235,1070 1049,948 907,856L649,687L672,663C720,611 885,497 1177,311C1343,206 1481,120 1484,120C1492,120 2100,508 2170,558C2252,616 2406,764 2477,853C2588,992 2684,1170 2741,1342C2794,1504 2812,1626 2817,1855C2820,1971 2821,2073 2819,2082C2816,2096 2787,2081 2674,2008Z" style="fill:rgb(0,78,113);fill-rule:nonzero;"/>
        </g>
    </g>
</svg>
